<?xml version="1.0" standalone="no"?>
<!DOCTYPE svg PUBLIC "-//W3C//DTD SVG 20010904//EN"
 "http://www.w3.org/TR/2001/REC-SVG-20010904/DTD/svg10.dtd">
<svg version="1.0" xmlns="http://www.w3.org/2000/svg"
 width="2100.000000pt" height="1500.000000pt" viewBox="0 0 2100.000000 1500.000000"
 preserveAspectRatio="xMidYMid meet">
<metadata>
Created by potrace 1.15, written by Peter Selinger 2001-2017
</metadata>
<g transform="translate(0.000000,1500.000000) scale(0.100000,-0.100000)"
fill="#000000" stroke="none">
<path d="M10313 9888 c-364 -376 -689 -708 -721 -738 -32 -30 -74 -74 -95 -97
l-36 -42 -189 -33 -189 -34 -34 71 -34 70 -3 -77 c-3 -86 1 -82 -102 -93 l-55
-6 -140 167 c-76 92 -140 163 -142 158 -1 -5 26 -88 61 -184 l64 -175 -66 -13
c-185 -36 -768 -169 -917 -208 -209 -56 -751 -211 -900 -257 -333 -105 -890
-331 -1240 -502 -415 -204 -869 -498 -1086 -702 -278 -263 -419 -542 -420
-833 -1 -163 26 -254 110 -379 264 -388 746 -630 1677 -840 425 -96 923 -157
1481 -182 247 -11 1012 -7 1378 7 l150 6 -61 -30 c-90 -44 -118 -94 -72 -126
40 -28 246 -18 938 44 662 60 1016 100 1485 166 308 43 466 64 1320 174 1067
138 1622 247 2478 486 361 101 482 139 791 246 994 345 1537 623 1997 1022
215 187 389 440 475 691 38 110 40 280 6 398 -63 219 -169 348 -424 518 -322
213 -714 377 -1176 493 -342 86 -534 116 -1077 172 -326 33 -387 36 -880 46
-291 5 -531 11 -532 12 -1 1 -7 62 -13 136 -18 205 -24 208 -45 23 l-18 -162
-61 -5 c-34 -3 -158 -8 -277 -11 l-216 -6 -77 55 c-364 261 -836 430 -1391
498 -173 21 -724 18 -895 -5 -297 -40 -588 -113 -820 -206 -66 -26 -120 -46
-120 -44 0 3 174 226 387 496 212 271 391 498 396 505 5 6 6 12 1 12 -5 0
-307 -307 -671 -682z m2052 -293 c398 -46 716 -160 990 -353 187 -132 366
-328 480 -526 l29 -49 -160 124 c-87 68 -215 167 -284 221 -115 90 -157 117
-133 86 6 -7 124 -154 262 -326 139 -172 251 -315 250 -316 -2 -2 -143 -25
-314 -51 -170 -27 -321 -51 -335 -55 -31 -8 213 -20 414 -20 84 0 146 -4 140
-9 -5 -4 -108 -53 -229 -107 -121 -54 -212 -100 -204 -102 9 -1 123 11 254 27
131 17 240 29 241 28 2 -1 -72 -82 -163 -180 l-167 -177 -937 0 c-780 0 -940
-2 -951 -14 -7 -7 -155 -297 -328 -645 -173 -347 -318 -630 -321 -629 -3 2
-71 65 -150 141 l-143 137 113 0 c62 0 121 5 132 10 12 7 116 204 264 500 135
270 245 492 245 495 0 3 -364 5 -808 5 l-809 0 -157 241 c-87 132 -156 242
-154 243 1 2 145 15 318 30 419 36 434 38 419 46 -8 4 -159 29 -336 56 -177
26 -320 51 -318 54 2 4 115 54 251 111 136 57 241 105 232 107 -13 3 -414 -62
-521 -84 -25 -5 -17 9 82 134 61 77 117 144 124 150 14 12 274 59 532 96 140
20 842 107 950 118 24 2 31 8 33 29 2 14 -3 31 -10 37 -26 21 -675 -26 -1123
-82 -60 -7 -111 -12 -113 -11 -1 1 68 39 155 83 467 238 957 366 1663 435 106
11 478 6 595 -8z m-2388 -192 c-216 -273 -684 -869 -691 -882 -7 -11 1 -13 50
-7 64 6 63 5 -40 -39 -32 -14 -56 -28 -54 -30 2 -3 78 -16 169 -30 90 -14 171
-27 179 -28 8 -2 -52 -9 -135 -16 -82 -7 -152 -14 -154 -17 -2 -2 22 -43 54
-91 143 -215 143 -211 -1 -76 -93 88 -130 118 -132 105 -1 -9 4 -64 12 -122 7
-58 13 -106 12 -107 -1 -1 -33 67 -70 152 -38 85 -73 152 -77 149 -5 -3 -9
-23 -9 -45 0 -21 -5 -39 -10 -39 -6 0 -70 -48 -143 -107 l-132 -108 51 65 c28
36 70 90 94 120 l43 55 -68 5 -69 5 88 28 c48 16 86 31 84 33 -2 2 -103 15
-223 29 -121 14 -220 27 -222 29 -2 2 71 9 163 16 100 8 168 18 170 24 2 6
-29 103 -70 214 -41 112 -73 202 -71 200 1 -2 69 -82 149 -178 81 -96 151
-176 157 -178 5 -2 9 41 10 105 l0 108 37 -73 c20 -40 39 -71 42 -70 3 2 206
209 450 461 244 251 445 457 447 457 2 0 -39 -53 -90 -117z m4061 -248 c4 -4
-28 -293 -36 -327 -6 -22 -15 1 -52 118 -25 79 -48 144 -52 144 -5 0 -8 -64
-8 -142 l0 -141 -69 104 c-38 57 -102 139 -142 183 l-73 78 215 -7 c118 -4
215 -9 217 -10z m317 -15 c183 -13 625 -54 795 -76 303 -37 609 -98 988 -194
350 -90 609 -183 875 -316 399 -200 593 -461 574 -773 -21 -340 -235 -634
-715 -978 -379 -272 -1097 -608 -1837 -859 -420 -143 -942 -293 -1350 -387
-608 -141 -837 -184 -1790 -336 l-630 -100 -715 9 c-786 10 -736 8 -1145 55
-432 50 -410 48 -429 30 -20 -20 -20 -22 -1 -74 11 -32 12 -43 2 -46 -33 -10
-882 -27 -1095 -21 -686 18 -1317 114 -1851 281 -580 180 -918 348 -1126 559
-101 102 -153 183 -192 301 -25 72 -27 95 -28 230 l0 150 36 75 c50 105 143
223 294 376 254 256 530 457 925 677 l131 72 787 -787 c450 -451 794 -788 804
-788 14 0 103 169 369 703 l352 702 319 258 c176 143 322 256 325 253 5 -5 53
-286 53 -313 0 -10 -47 -13 -203 -13 -182 0 -206 -2 -219 -17 -18 -20 -788
-1558 -788 -1573 0 -14 475 -13 501 0 12 7 157 286 378 728 l359 717 13 -92
c7 -51 16 -93 21 -93 4 0 8 60 8 134 0 74 5 147 10 162 6 15 7 30 3 33 -5 3
-6 60 -3 125 l5 120 73 -161 c39 -88 72 -166 72 -172 0 -6 -164 -340 -365
-741 -201 -401 -365 -739 -365 -750 0 -19 7 -20 244 -20 194 0 247 3 258 14 7
7 119 225 248 485 129 259 239 471 245 471 5 0 341 -331 745 -735 l735 -735
297 0 c214 0 299 3 304 12 4 7 -86 102 -237 249 l-244 238 780 1 c606 0 784 3
796 13 16 12 499 967 499 987 0 7 -211 10 -619 10 l-620 0 -21 -27 c-34 -43
-182 -351 -178 -371 3 -16 31 -17 361 -20 l357 -2 -40 -80 c-22 -43 -49 -84
-59 -90 -21 -11 -933 -15 -944 -4 -10 11 360 741 385 758 20 14 102 16 744 16
674 0 722 1 736 18 9 9 56 98 106 197 l90 181 200 131 200 131 6 -32 c3 -17 8
-72 12 -123 l7 -92 -119 -3 -119 -3 -394 -785 c-235 -467 -392 -791 -387 -798
10 -16 468 -17 497 -1 13 6 121 214 291 560 149 302 275 544 278 538 4 -6 11
6 14 26 7 38 186 405 197 405 3 0 23 -43 44 -96 l39 -96 -333 -666 c-182 -367
-332 -670 -331 -674 0 -5 112 -8 248 -8 224 0 250 2 264 18 9 9 115 215 236
457 l220 440 459 -457 c452 -451 459 -458 499 -458 22 0 50 7 62 16 13 9 75
120 148 265 l125 250 41 -33 c199 -158 264 -208 273 -207 6 0 -57 65 -139 145
l-150 146 247 494 c136 272 247 501 247 509 0 13 -34 15 -243 15 -179 0 -247
-3 -259 -12 -9 -7 -90 -160 -180 -339 l-163 -327 -594 577 c-326 317 -593 581
-593 586 0 6 73 44 162 87 89 42 164 79 167 82 4 3 -74 6 -171 6 l-178 0 256
216 c141 119 256 220 256 224 0 4 -21 0 -47 -10 -363 -135 -646 -232 -652
-222 -4 7 -15 108 -25 224 -10 117 -20 221 -22 231 -6 21 0 21 211 7z m-245
-425 c6 -82 13 -151 14 -152 1 -2 45 13 97 31 285 103 323 115 302 99 -96 -77
-332 -279 -333 -285 0 -5 51 -8 113 -9 l112 -1 -77 -36 c-43 -19 -78 -39 -78
-43 0 -4 203 -204 450 -444 248 -241 450 -440 450 -443 0 -3 -8 2 -17 10 -47
41 -976 768 -978 766 -2 -2 1 -27 7 -57 5 -29 7 -55 5 -57 -2 -3 -19 32 -38
76 -19 47 -36 75 -39 68 -4 -7 -18 -87 -31 -177 -26 -181 -32 -180 -44 9 -4
58 -9 108 -11 112 -3 4 -62 -30 -132 -76 -70 -45 -134 -86 -142 -90 -8 -5 21
29 65 75 132 138 159 168 154 173 -2 3 -53 -2 -113 -10 -60 -7 -111 -12 -113
-11 -1 2 61 32 140 67 78 35 146 67 152 72 5 4 -22 9 -60 9 -39 1 -60 4 -47 6
12 2 22 7 22 10 0 2 -48 64 -107 136 -114 140 -114 140 46 15 40 -32 78 -58
82 -58 5 0 9 28 10 63 l1 62 25 -80 c25 -81 30 -92 37 -84 2 2 14 97 27 211
13 115 26 205 30 200 3 -4 12 -74 19 -157z m-5318 -99 c15 -43 27 -80 25 -82
-2 -2 -211 -23 -465 -46 -254 -23 -462 -45 -462 -48 0 -3 177 -25 394 -50 217
-24 393 -47 391 -50 -2 -4 -68 -26 -147 -51 l-143 -44 227 -5 228 -5 -205
-264 c-112 -145 -207 -266 -211 -270 -3 -3 3 13 15 36 39 78 52 74 -231 71
l-253 -3 -207 -410 c-114 -225 -209 -414 -211 -420 -3 -5 -195 180 -429 413
l-424 422 -277 0 c-152 0 -277 4 -277 9 0 23 638 291 1025 431 406 147 761
258 940 294 44 9 204 48 355 85 151 38 283 68 294 68 14 -2 26 -23 48 -81z
m751 -713 l98 -93 -130 0 c-71 0 -136 -2 -143 -5 -11 -4 -18 25 -31 137 -9 79
-17 149 -17 157 0 14 25 -8 223 -196z m4907 -13 l95 -75 -41 0 c-22 0 -49 -7
-58 -14 -10 -8 -37 -53 -61 -100 -32 -65 -44 -81 -48 -66 -6 19 -67 375 -67
390 0 7 16 -5 180 -135z m756 -595 l331 -260 -31 -62 c-16 -35 -35 -63 -41
-63 -5 0 -206 196 -445 436 l-435 436 145 -113 c80 -63 295 -231 476 -374z
m-4576 95 c0 -16 -71 -154 -84 -162 -15 -10 -956 -10 -956 0 0 13 82 157 94
164 18 12 946 10 946 -2z"/>
</g>
</svg>
